<?xml version="1.0" encoding="utf-8"?>
<!-- Generator: Adobe Illustrator 23.0.1, SVG Export Plug-In . SVG Version: 6.00 Build 0)  -->
<svg version="1.1" id="Warstwa_1" xmlns="http://www.w3.org/2000/svg" xmlns:xlink="http://www.w3.org/1999/xlink" x="0px" y="0px"
	 viewBox="0 0 68.2 73.9" style="enable-background:new 0 0 68.2 73.9;" xml:space="preserve">
<style type="text/css">
	.st0{opacity:0.47;fill:#DDC79F;enable-background:new    ;}
	.st1{fill:#323545;}
	.st2{fill:#CBBBA0;}
</style>
<title>Zasób 1</title>
<g>
	<g id="Warstwa_1-2">
		<path class="st0" d="M0.5,51C0.8,51.5,1,51.8,1,51.8c0.7-0.2,1.4-0.2,2-0.1c0.6,0.1,1.2,0.3,1.7,0.5c0.5,0.2,0.9,0.6,1.2,1.1
			L6.3,53l-0.4,0.2c0.5,0.8,0.4,1.9-0.3,2.5c-0.6,0.5-1.4,0.7-2.2,0.4C3,56,2.6,55.8,2.2,55.6c0,0,0.2,0.3,0.5,0.7s0.8,1,1.3,1.5
			s0.9,1,1.3,1.4l0.6,0.6c0.2-0.1,0.4-0.2,0.6-0.3c0.4-0.2,0.9-0.3,1.4-0.4c0.6-0.1,1.2,0,1.8,0.1c0.5,0.1,1.1,0.3,1.4,0.7
			c0.7,0.6,0.9,1.7,0.4,2.5c-0.4,0.7-1.2,1-2,0.9c-0.5,0-0.9-0.1-1.4-0.2l0.7,0.5c0.4,0.3,1,0.7,1.6,1.1s1.2,0.8,1.6,1l0.6,0.3
			l0.2,0.1c0.5-0.5,1.1-0.9,1.8-1.1c0.6-0.2,1.1-0.3,1.7-0.4c0.5,0,1.1,0.1,1.6,0.3c0.3,0.2,0.5,0.4,0.7,0.7
			c0.3,0.5,0.4,1.1,0.3,1.7c-0.3,0.7-0.9,1.3-1.7,1.4c-0.3,0.1-0.7,0.1-1,0.1c-0.1,0-0.3,0-0.4,0l0.8,0.3c0.5,0.2,1.2,0.4,1.8,0.7
			s1.3,0.4,1.9,0.6l0.9,0.2c0.1-0.2,0.2-0.4,0.4-0.5c0.3-0.4,0.6-0.7,1-1c0.5-0.4,1-0.6,1.6-0.8c0.5-0.2,1.1-0.2,1.6-0.1
			c0.9,0.2,1.6,1,1.6,2c0,0.8-0.5,1.5-1.2,1.8c-0.3,0.2-0.6,0.3-0.9,0.4c-0.1,0.1-0.3,0.1-0.4,0.1h0.2l0.6,0.1
			c0.5,0.1,1.2,0.1,1.9,0.2l1,0.1h1.8c0.2-0.7,0.5-1.3,0.9-1.8c0.4-0.5,0.8-0.8,1.4-1.1c0.4-0.3,1-0.5,1.5-0.5c0.9,0,1.8,0.6,2,1.5
			c0.2,0.8-0.1,1.6-0.8,2.1c-0.3,0.3-0.7,0.6-1.1,0.8l0.9-0.1l0.9-0.1l1-0.2c0.7-0.1,1.4-0.3,1.9-0.4s0.8-0.2,0.8-0.2
			c0-0.7,0.2-1.4,0.4-2c0.4-1.1,1.2-1.9,2.3-2.4c0.9-0.3,1.9,0.1,2.4,1c0.3,0.7,0.3,1.6-0.2,2.2c-0.2,0.4-0.5,0.8-0.9,1.1
			c0,0,1.3-0.5,2.6-1.2c0.6-0.3,1.2-0.7,1.7-0.9s0.8-0.4,0.8-0.4c-0.3-1.3-0.2-2.6,0.4-3.8c0.2-0.5,0.6-0.9,1.1-1.2L50.2,65l0.1,0.2
			c0.8-0.5,1.9-0.4,2.5,0.3c0.5,0.6,0.7,1.4,0.4,2.2c-0.1,0.5-0.3,0.9-0.6,1.3c0,0,0.3-0.2,0.7-0.5s1-0.8,1.5-1.3s1-0.9,1.4-1.3
			l0.6-0.6c-0.1-0.2-0.2-0.4-0.3-0.6c-0.2-0.4-0.3-0.9-0.4-1.4c-0.1-0.6,0-1.2,0.1-1.8c0.1-0.6,0.4-1.1,0.8-1.5
			c0.6-0.7,1.7-0.9,2.5-0.3c0.7,0.4,1,1.2,0.9,2c0,0.5-0.1,0.9-0.2,1.3l0.5-0.7c0.3-0.4,0.7-1,1.1-1.6s0.8-1.2,1-1.6
			c0.1-0.2,0.3-0.4,0.3-0.5l0.1-0.2c-0.5-0.5-0.9-1.1-1.1-1.8C62.1,56,62,55.4,62,54.8c0-0.5,0.1-1.1,0.3-1.6
			c0.2-0.3,0.4-0.5,0.7-0.7c0.5-0.3,1.1-0.4,1.7-0.3c0.7,0.3,1.3,0.9,1.4,1.7c0.1,0.3,0.1,0.7,0.1,1c0,0.3,0,0.4,0,0.4l0.3-0.8
			c0.2-0.5,0.4-1.2,0.7-1.8s0.4-1.3,0.6-1.8S68,50.1,68,50H0L0.5,51z M67.7,23c-0.3-0.5-0.4-0.8-0.4-0.8c-1.3,0.3-2.6,0.2-3.8-0.4
			c-0.5-0.2-0.9-0.6-1.2-1.1c-0.5-0.8-0.4-1.9,0.3-2.5c0.6-0.5,1.4-0.7,2.2-0.4c0.5,0.1,0.9,0.3,1.3,0.6c0,0-0.2-0.3-0.5-0.7
			s-0.8-1-1.3-1.5c-0.5-0.5-0.9-1-1.3-1.4l-0.6-0.6c-0.2,0.1-0.4,0.2-0.6,0.3c-0.4,0.2-0.9,0.3-1.4,0.4c-0.6,0.1-1.2,0-1.8-0.1
			c-0.5-0.1-1.1-0.3-1.5-0.7c-0.7-0.7-0.8-1.7-0.3-2.5c0.4-0.7,1.2-1,2-0.9c0.5,0,0.9,0.1,1.4,0.2l-0.7-0.5c-0.4-0.3-1-0.7-1.6-1.1
			s-1.2-0.8-1.6-1C56,8,55.8,7.9,55.7,7.8l-0.2-0.1c-0.5,0.5-1.1,0.8-1.8,1.1c-0.5,0.2-1.1,0.3-1.7,0.4c-0.5,0-1.1-0.1-1.6-0.3
			c-0.3-0.2-0.5-0.4-0.7-0.7c-0.3-0.5-0.4-1.1-0.3-1.7c0.3-0.7,0.9-1.3,1.7-1.4c0.3-0.1,0.7-0.1,1-0.1h0.4l-0.8-0.3
			c-0.5-0.2-1.2-0.4-1.8-0.7S48.5,3.4,48,3.3l-0.8-0.2c-0.1,0.2-0.2,0.4-0.4,0.5c-0.3,0.4-0.6,0.7-1,1c-0.5,0.4-1,0.6-1.6,0.8
			c-0.5,0.2-1.1,0.2-1.6,0.1c-0.9-0.2-1.6-1-1.6-2c0.1-0.8,0.5-1.5,1.3-1.8c0.3-0.2,0.6-0.3,0.9-0.4c0.1,0,0.3-0.1,0.4-0.1h-0.3
			l-0.6-0.1C42.2,1.1,41.5,1,40.8,1l-1-0.1h-1.9c-0.2,0.6-0.5,1.3-0.9,1.8c-0.4,0.5-0.8,0.9-1.3,1.2c-0.4,0.3-1,0.5-1.5,0.5
			c-1,0-1.8-0.6-2-1.5c-0.2-0.8,0.1-1.5,0.7-2.1C33.2,0.5,33.6,0.2,34,0l-0.9,0.1l-0.9,0.1l-1,0.2c-0.7,0.1-1.4,0.3-1.9,0.4
			l-0.8,0.2c0,0.7-0.2,1.4-0.4,2c-0.4,1.1-1.2,1.9-2.3,2.4c-0.9,0.3-1.9-0.1-2.4-1c-0.4-0.7-0.3-1.6,0.2-2.2
			c0.2-0.4,0.5-0.8,0.9-1.1c0,0-1.3,0.5-2.6,1.2c-0.6,0.3-1.3,0.7-1.7,0.9s-0.8,0.5-0.8,0.5c0.2,0.7,0.2,1.4,0.1,2.1
			C19.4,6.4,19.2,7,19,7.5c-0.2,0.5-0.6,0.9-1.1,1.2c-0.8,0.5-1.9,0.4-2.5-0.3C14.8,7.8,14.7,7,15,6.2c0.1-0.4,0.3-0.8,0.5-1.2
			c0,0-0.3,0.2-0.7,0.5s-1,0.8-1.5,1.3s-1.1,0.9-1.4,1.3l-0.6,0.6c0.1,0.2,0.2,0.4,0.3,0.6c0.2,0.4,0.3,0.9,0.4,1.4
			c0.1,0.6,0,1.2-0.1,1.8c-0.1,0.6-0.3,1.1-0.7,1.5c-0.7,0.7-1.7,0.8-2.5,0.3c-0.7-0.4-1-1.2-0.9-2c0-0.5,0.1-0.9,0.2-1.4l-0.5,0.7
			c-0.3,0.4-0.7,1-1.1,1.6s-0.8,1.2-1,1.6c-0.1,0.2-0.3,0.4-0.3,0.6l-0.1,0.2c0.5,0.5,0.9,1.1,1.1,1.7c0.2,0.6,0.3,1.1,0.4,1.7
			c0,0.5-0.1,1.1-0.3,1.6c-0.2,0.3-0.4,0.5-0.7,0.7c-0.5,0.3-1.1,0.4-1.7,0.3c-0.8-0.3-1.3-0.9-1.4-1.7C2.1,19.7,2,19.3,2,19
			c0-0.3,0-0.4,0-0.4l-0.3,0.8c-0.2,0.5-0.4,1.2-0.7,1.8s-0.4,1.4-0.5,1.9s-0.2,0.7-0.2,0.8h68C68,23.5,67.8,23.2,67.7,23z"/>
		<path class="st1" d="M20.1,10.7L18,14.2h2.2v0.8H17v-0.7l2.1-3.5h-2V10h3L20.1,10.7z"/>
		<path class="st1" d="M22.9,10h0.8v5h-0.8V10z M23.3,12.3h1.6c0.1,0,0.2,0,0.3-0.1c0.1-0.1,0.2-0.2,0.2-0.3
			c0.1-0.1,0.1-0.2,0.1-0.4c0-0.1,0-0.3-0.1-0.4c-0.1-0.1-0.1-0.2-0.2-0.3c-0.1-0.1-0.2-0.1-0.3-0.1h-1.6V10h1.6
			c0.3,0,0.6,0.1,0.8,0.2c0.2,0.1,0.4,0.3,0.5,0.5c0.1,0.2,0.2,0.5,0.2,0.8c0,0.3-0.1,0.5-0.2,0.8c-0.1,0.2-0.3,0.4-0.5,0.5
			C25.4,13,25.1,13,24.9,13h-1.6V12.3z"/>
		<path class="st1" d="M28.3,10h0.6l1.9,5h-0.9l-1.3-3.7L27.4,15h-0.9L28.3,10z M27.3,13.2H30V14h-2.6L27.3,13.2z"/>
		<path class="st1" d="M32.4,15L32,14.9c-0.2,0-0.4-0.1-0.6-0.2c-0.2-0.1-0.4-0.2-0.5-0.3l0.4-0.6c0.2,0.2,0.4,0.3,0.6,0.4
			c0.2,0.1,0.5,0.1,0.8,0.1c0.3,0,0.5,0,0.8-0.2c0.2-0.1,0.3-0.3,0.3-0.5l0,0c0-0.1,0-0.3-0.1-0.4c-0.1-0.1-0.2-0.2-0.3-0.2
			l-0.5-0.1h-0.1c-0.3,0-0.6-0.1-0.8-0.2c-0.2-0.1-0.4-0.2-0.5-0.4c-0.2-0.2-0.2-0.5-0.2-0.8l0,0c0-0.3,0.1-0.6,0.2-0.8
			c0.1-0.2,0.4-0.4,0.6-0.5c0.3-0.1,0.7-0.2,1-0.2c0.2,0,0.4,0,0.5,0.1c0.2,0,0.4,0.1,0.5,0.2c0.2,0.1,0.3,0.2,0.5,0.3l-0.4,0.7
			c-0.2-0.1-0.4-0.2-0.6-0.3c-0.2-0.1-0.4-0.1-0.6-0.1c-0.3,0-0.5,0-0.7,0.2C32.1,11,32,11.2,32,11.4l0,0c0,0.1,0,0.3,0.1,0.4
			c0.1,0.1,0.2,0.2,0.3,0.2l0.6,0.1h0.1c0.3,0,0.5,0.1,0.8,0.2c0.2,0.1,0.4,0.2,0.5,0.4c0.2,0.2,0.2,0.5,0.2,0.8l0,0
			c0,0.3-0.1,0.6-0.2,0.8c-0.2,0.2-0.4,0.4-0.6,0.5c-0.3,0.1-0.7,0.2-1,0.2L32.4,15z"/>
		<path class="st1" d="M35.6,14.8c-0.2-0.1-0.4-0.3-0.5-0.5l0.7-0.5c0.1,0.1,0.2,0.2,0.3,0.2c0.1,0.1,0.3,0.1,0.4,0.1
			c0.2,0,0.4-0.1,0.5-0.2c0.1-0.2,0.2-0.4,0.2-0.6V10h0.8v3.4c0,0.3-0.1,0.6-0.2,0.9c-0.1,0.2-0.3,0.4-0.5,0.6
			C36.9,15,36.6,15,36.3,15C36.1,15,35.8,14.9,35.6,14.8z"/>
		<path class="st1" d="M39.9,14.9H39V10h0.8L39.9,14.9z"/>
		<path class="st1" d="M42.9,10h0.8v5h-0.8V10z M43.3,14.2h1.2c0.3,0,0.6-0.1,0.8-0.3c0.2-0.2,0.3-0.5,0.3-0.7v-1.5
			c0-0.3-0.1-0.5-0.3-0.7c-0.2-0.2-0.5-0.3-0.8-0.3h-1.2V10h1.1c0.3,0,0.7,0.1,1,0.2c0.3,0.1,0.5,0.3,0.7,0.6c0.2,0.3,0.2,0.7,0.2,1
			v1.4c0,0.3-0.1,0.7-0.2,0.9c-0.2,0.3-0.4,0.5-0.7,0.6c-0.3,0.1-0.7,0.2-1.1,0.2h-1.1V14.2z"/>
		<path class="st1" d="M48.1,14.8c-0.3-0.2-0.5-0.4-0.6-0.6c-0.2-0.3-0.2-0.7-0.2-1v-1.4c0-0.3,0.1-0.7,0.2-1
			c0.1-0.3,0.4-0.5,0.6-0.6c0.6-0.3,1.3-0.3,1.9,0c0.3,0.1,0.5,0.4,0.6,0.6c0.2,0.3,0.2,0.7,0.2,1v1.4c0,0.3-0.1,0.7-0.2,1
			c-0.1,0.3-0.4,0.5-0.6,0.6C49.4,15.1,48.7,15.1,48.1,14.8L48.1,14.8z M49.5,14.1c0.1-0.1,0.3-0.2,0.3-0.4c0.1-0.2,0.1-0.3,0.1-0.5
			v-1.5c0-0.2,0-0.4-0.1-0.5c-0.1-0.1-0.2-0.3-0.3-0.4c-0.2-0.1-0.3-0.1-0.5-0.1c-0.2,0-0.3,0-0.5,0.1c-0.1,0.1-0.3,0.2-0.3,0.4
			c-0.1,0.2-0.1,0.3-0.1,0.5v1.5c0,0.2,0,0.4,0.1,0.5c0.1,0.1,0.2,0.3,0.3,0.4c0.2,0.1,0.3,0.1,0.5,0.1
			C49.2,14.2,49.3,14.1,49.5,14.1z"/>
		<path class="st1" d="M21.2,58.8H22v5h-0.8L21.2,58.8z M21.7,63h1.2c0.3,0,0.6-0.1,0.8-0.3c0.2-0.2,0.3-0.5,0.3-0.8v-1.5
			c0-0.3-0.1-0.5-0.3-0.7c-0.2-0.2-0.5-0.3-0.8-0.3h-1.2v-0.8h1.1c0.3,0,0.7,0.1,1,0.2c0.3,0.1,0.5,0.3,0.7,0.6
			c0.2,0.3,0.2,0.7,0.2,1V62c0,0.3-0.1,0.7-0.2,1c-0.1,0.3-0.4,0.5-0.6,0.6c-0.3,0.1-0.7,0.2-1,0.2h-1.1V63z"/>
		<path class="st1" d="M25.7,58.8h0.8v5h-0.8V58.8z M26.1,60.9h1.7c0.1,0,0.2,0,0.3-0.1c0.1-0.1,0.2-0.1,0.2-0.2
			c0-0.1,0.1-0.2,0.1-0.4c0-0.1,0-0.2-0.1-0.4c0-0.1-0.1-0.2-0.2-0.2c-0.1-0.1-0.2-0.1-0.3-0.1h-1.7v-0.8h1.7c0.3,0,0.5,0.1,0.7,0.2
			c0.2,0.1,0.4,0.3,0.5,0.5c0.2,0.5,0.2,1,0,1.5c-0.1,0.2-0.3,0.4-0.5,0.5c-0.2,0.1-0.5,0.2-0.7,0.2h-1.7V60.9z M27.3,61.6l0.9-0.2
			l1.3,2.4h-1L27.3,61.6z"/>
		<path class="st1" d="M33.2,59.5L31.1,63h2.2v0.8h-3.2V63l2.1-3.5h-2.1v-0.8h3L33.2,59.5z"/>
		<path class="st1" d="M34.1,58.8h0.8v5h-0.8V58.8z M34.4,58.8h2.9v0.8h-2.9L34.4,58.8z M34.4,60.9H37v0.8h-2.6L34.4,60.9z M34.4,63
			h2.9v0.8h-2.9L34.4,63z"/>
		<path class="st1" d="M40.4,58.8H41l1,3.6l0.8-3.6h0.8l-1.2,5h-0.8l-0.9-3.5l-0.9,3.5H39l-1.2-5h0.8l0.8,3.6L40.4,58.8z"/>
		<path class="st1" d="M45.3,58.8h0.6l1.9,5h-0.9l-1.3-3.7l-1.3,3.7h-0.9L45.3,58.8z M44.3,62h2.6v0.8h-2.6L44.3,62z"/>
		<path class="st2" d="M5.3,26.1h1.3v7.8H5.3V26.1z M5.9,26.1h4.5v1.2H5.9V26.1z M5.9,29.5h3.9v1.2H5.9V29.5z"/>
		<path class="st2" d="M12.7,33.7c-0.4-0.2-0.8-0.6-1-1c-0.2-0.5-0.3-1-0.3-1.6v-5h1.3v5c0,0.4,0.1,0.9,0.4,1.2
			c0.3,0.3,0.7,0.4,1.1,0.4c0.4,0,0.8-0.1,1.1-0.4c0.3-0.3,0.4-0.7,0.4-1.2v-5H17v5c0,0.5-0.1,1.1-0.3,1.6c-0.2,0.4-0.6,0.8-1,1
			c-0.5,0.2-1,0.4-1.5,0.3C13.6,34,13.1,33.9,12.7,33.7z"/>
		<path class="st2" d="M18.6,26.1h1.3v7.8h-1.3V26.1z M19.1,29.5h2.7c0.2,0,0.3,0,0.5-0.1c0.1-0.1,0.2-0.2,0.3-0.4
			c0.1-0.2,0.1-0.4,0.1-0.6c0-0.2,0-0.4-0.1-0.6c-0.1-0.2-0.2-0.3-0.3-0.4c-0.1-0.1-0.3-0.1-0.5-0.1h-2.7v-1.3h2.7
			c0.4,0,0.8,0.1,1.2,0.3c0.3,0.2,0.6,0.5,0.8,0.8c0.4,0.8,0.4,1.7,0,2.4c-0.2,0.3-0.5,0.6-0.8,0.8c-0.4,0.2-0.8,0.3-1.2,0.3h-2.7
			V29.5z M21,30.5l1.3-0.2l2,3.7h-1.5L21,30.5z"/>
		<path class="st2" d="M25.8,26.1h1.4l3.4,6l-0.1,0.1v-6.1h1.3v7.8h-1.4L26.9,28l0.1-0.1v6.1h-1.3V26.1z"/>
		<path class="st2" d="M34.7,33.9h-1.3v-7.8h1.3L34.7,33.9z"/>
		<path class="st2" d="M35.8,26.1h5.6v1.2h-5.6V26.1z M38,26.8h1.3v7.2H38L38,26.8z"/>
		<path class="st2" d="M43.4,33.7c-0.4-0.2-0.8-0.6-1-1c-0.2-0.5-0.3-1-0.3-1.6v-5h1.3v5c0,0.4,0.1,0.9,0.4,1.2
			c0.3,0.3,0.7,0.4,1.1,0.4c0.4,0,0.8-0.1,1.2-0.4c0.3-0.3,0.4-0.8,0.4-1.2v-5h1.3v5c0,0.5-0.1,1.1-0.3,1.6c-0.2,0.4-0.6,0.8-1,1
			C45.4,34.2,44.3,34.2,43.4,33.7L43.4,33.7z"/>
		<path class="st2" d="M49.3,26.1h1.3v7.8h-1.3V26.1z M49.8,29.5h2.7c0.2,0,0.3,0,0.5-0.1c0.1-0.1,0.3-0.2,0.3-0.4
			c0.1-0.2,0.1-0.4,0.1-0.6c0-0.2,0-0.4-0.1-0.6c-0.1-0.2-0.2-0.3-0.3-0.4c-0.1-0.1-0.3-0.1-0.5-0.1h-2.7v-1.2h2.7
			c0.4,0,0.8,0.1,1.2,0.3c0.3,0.2,0.6,0.5,0.8,0.8c0.4,0.8,0.4,1.7,0,2.4c-0.2,0.3-0.5,0.6-0.8,0.8c-0.4,0.2-0.8,0.3-1.2,0.3h-2.7
			V29.5z M51.7,30.5l1.3-0.2l2,3.7h-1.5L51.7,30.5z"/>
		<path class="st2" d="M56.5,26.1h1.3v7.8h-1.3V26.1z M57,26.1h4.6v1.2H57L57,26.1z M57,29.4h4v1.2h-4L57,29.4z M57,32.7h4.6v1.2H57
			L57,32.7z"/>
		<path class="st2" d="M25.1,40.5l-3.3,5.5h3.4v1.2h-5V46l3.3-5.5h-3.2v-1.2h4.8V40.5z"/>
		<path class="st2" d="M27.7,46.9c-0.4-0.2-0.8-0.6-1-1c-0.2-0.5-0.4-1-0.4-1.5v-2.2c0-0.5,0.1-1,0.4-1.5c0.2-0.4,0.6-0.8,1-1
			c0.9-0.5,2-0.5,2.9,0c0.4,0.2,0.8,0.6,1,1c0.2,0.5,0.4,1,0.4,1.5v2.2c0,0.5-0.1,1-0.4,1.5c-0.2,0.4-0.6,0.8-1,1
			C29.7,47.3,28.6,47.3,27.7,46.9L27.7,46.9z M29.9,45.7c0.2-0.1,0.4-0.3,0.5-0.5c0.1-0.3,0.2-0.5,0.2-0.8v-2.3
			c0-0.3-0.1-0.6-0.2-0.8c-0.1-0.2-0.3-0.4-0.5-0.5c-0.2-0.1-0.5-0.2-0.8-0.2c-0.3,0-0.5,0.1-0.8,0.2c-0.2,0.1-0.4,0.3-0.5,0.5
			c-0.1,0.3-0.2,0.5-0.2,0.8v2.3c0,0.3,0.1,0.6,0.2,0.8c0.1,0.2,0.3,0.4,0.5,0.5c0.2,0.1,0.5,0.2,0.8,0.2
			C29.4,46,29.7,45.9,29.9,45.7z"/>
		<path class="st2" d="M33.5,39.3h1.4l3.4,6l-0.1,0.1v-6.1h1.2v7.8H38l-3.3-5.9l0.1-0.1v6.1h-1.3V39.3z"/>
		<path class="st2" d="M41.2,39.3h1.3v7.8h-1.3V39.3z M41.7,39.3h4.6v1.2h-4.6L41.7,39.3z M41.7,42.6h4v1.2h-4V42.6z M41.7,45.9h4.6
			v1.2h-4.6L41.7,45.9z"/>
		<path class="st1" d="M29,17.4h0.6v4.3H29V17.4z M29.3,17.4h2.4V18h-2.5L29.3,17.4z M29.3,19.3h2.1v0.6h-2.2L29.3,19.3z M29.3,21.1
			h2.4v0.6h-2.5L29.3,21.1z"/>
		<path class="st1" d="M33.5,21.7l-0.3-0.1c-0.4-0.1-0.7-0.2-1-0.5l0.4-0.5c0.2,0.1,0.3,0.2,0.5,0.3c0.2,0.1,0.4,0.1,0.6,0.1
			c0.2,0,0.5,0,0.7-0.2c0.2-0.1,0.3-0.3,0.3-0.5l0,0c0-0.1,0-0.3-0.1-0.4c-0.1-0.1-0.2-0.2-0.3-0.2c-0.2,0-0.3-0.1-0.5-0.1h-0.1
			c-0.2,0-0.5-0.1-0.7-0.2c-0.2-0.1-0.3-0.2-0.5-0.3c-0.1-0.2-0.2-0.4-0.2-0.7l0,0c0-0.2,0.1-0.5,0.2-0.7c0.1-0.2,0.3-0.3,0.5-0.4
			c0.3-0.1,0.5-0.2,0.8-0.1c0.2,0,0.3,0,0.5,0c0.1,0,0.3,0.1,0.4,0.1c0.2,0.1,0.3,0.2,0.4,0.3l-0.3,0.5c-0.2-0.1-0.3-0.2-0.5-0.3
			C34.3,18,34.1,18,34,18c-0.2,0-0.5,0-0.7,0.2c-0.2,0.1-0.2,0.3-0.2,0.5l0,0c0,0.1,0,0.2,0.1,0.3c0.1,0.1,0.2,0.2,0.3,0.2
			c0.2,0,0.3,0.1,0.5,0.1h0.1c0.2,0,0.4,0.1,0.6,0.2c0.2,0.1,0.3,0.2,0.4,0.4c0.1,0.2,0.2,0.4,0.2,0.7l0,0c0,0.2-0.1,0.5-0.2,0.7
			c-0.1,0.2-0.3,0.3-0.5,0.4c-0.3,0.1-0.6,0.1-0.8,0.1L33.5,21.7z"/>
		<path class="st1" d="M35.7,17.4h3V18h-3V17.4z M36.9,17.8h0.6v3.9h-0.6V17.8z"/>
		<path class="st1" d="M26.5,54.6l1.5-2c0.1-0.1,0.2-0.2,0.2-0.3c0-0.1,0.1-0.2,0.1-0.3l0,0c0-0.1,0-0.3-0.1-0.4
			c-0.1-0.1-0.3-0.1-0.4-0.1c-0.2,0-0.3,0.1-0.4,0.2c-0.1,0.1-0.2,0.3-0.2,0.4h-0.6c0-0.2,0.1-0.4,0.2-0.6c0.1-0.2,0.2-0.3,0.4-0.4
			c0.2-0.1,0.4-0.1,0.6-0.1c0.2,0,0.4,0,0.6,0.1c0.2,0.1,0.3,0.2,0.4,0.4c0.1,0.2,0.2,0.4,0.1,0.6l0,0c0,0.2,0,0.3-0.1,0.5
			c-0.1,0.2-0.2,0.3-0.3,0.5l-1.2,1.7h1.6v0.6h-2.4L26.5,54.6z"/>
		<path class="st1" d="M30,54.8c-0.2-0.2-0.3-0.6-0.3-0.9V52c-0.1-0.6,0.4-1.1,1-1.2c0.1,0,0.2,0,0.3,0c0.3,0,0.7,0.1,0.9,0.3
			c0.2,0.2,0.3,0.6,0.3,0.9v1.9c0,0.7-0.6,1.2-1.4,1.2C30.5,55.1,30.2,55,30,54.8L30,54.8z M31.4,54.4c0.1-0.1,0.2-0.3,0.1-0.5V52
			c0-0.2,0-0.3-0.1-0.5c-0.1-0.1-0.3-0.2-0.5-0.2c-0.2,0-0.3,0-0.5,0.2c-0.1,0.1-0.2,0.3-0.1,0.5v1.9c0,0.2,0,0.3,0.1,0.5
			c0.1,0.1,0.3,0.2,0.5,0.2C31.1,54.6,31.2,54.5,31.4,54.4L31.4,54.4z"/>
		<path class="st1" d="M33.1,54.8c-0.2-0.2-0.3-0.6-0.3-0.9V52c0-0.3,0.1-0.7,0.3-0.9c0.5-0.4,1.3-0.4,1.8,0
			c0.2,0.2,0.3,0.6,0.3,0.9v1.9c0,0.3-0.1,0.6-0.3,0.9c-0.2,0.2-0.6,0.3-0.9,0.3C33.7,55.2,33.4,55,33.1,54.8z M34.5,54.4
			c0.1-0.1,0.2-0.3,0.2-0.5V52c0-0.2,0-0.3-0.2-0.5c-0.3-0.2-0.7-0.2-0.9,0c-0.1,0.1-0.2,0.3-0.2,0.5v1.9c0,0.2,0,0.3,0.2,0.5
			C33.9,54.6,34.2,54.6,34.5,54.4L34.5,54.4z"/>
		<path class="st1" d="M36.3,54.8c-0.2-0.2-0.3-0.6-0.3-0.9V52c0-0.3,0.1-0.7,0.3-0.9c0.2-0.2,0.6-0.3,0.9-0.3
			c0.6-0.1,1.1,0.3,1.2,0.9c0,0.1,0,0.2,0,0.3v1.9c0.1,0.6-0.4,1.1-1,1.2c-0.1,0-0.2,0-0.2,0C36.9,55.2,36.6,55,36.3,54.8z
			 M37.7,54.4c0.1-0.1,0.2-0.3,0.2-0.5V52c0-0.2,0-0.3-0.2-0.5c-0.1-0.1-0.3-0.2-0.5-0.2c-0.2,0-0.3,0-0.5,0.2
			c-0.1,0.1-0.2,0.3-0.2,0.5v1.9c0,0.2,0,0.3,0.2,0.5c0.1,0.1,0.3,0.2,0.5,0.2C37.4,54.6,37.6,54.5,37.7,54.4z"/>
	</g>
</g>
</svg>
